<svg height='100px' width='100px'  fill="#000000" xmlns="http://www.w3.org/2000/svg" xmlns:xlink="http://www.w3.org/1999/xlink" version="1.1" x="0px" y="0px" viewBox="0 0 1000 1000" style="enable-background:new 0 0 1000 1000;" xml:space="preserve"><style type="text/css">
	.st0{fill:none;stroke:#000000;stroke-width:2;stroke-linecap:round;stroke-linejoin:round;stroke-miterlimit:10;}
	.st1{opacity:0.97;}
</style><g><g><path d="M191,187h-72.5c-3.4,0-6.1-2.7-6.1-6.1v-72.5c0-3.4,2.7-6.1,6.1-6.1H191c3.4,0,6.1,2.7,6.1,6.1v72.5    C197.2,184.3,194.4,187,191,187z M124.7,174.8h60.2v-60.2h-60.2V174.8z"></path></g><g><path d="M881.4,897.7H809c-3.4,0-6.1-2.7-6.1-6.1v-72.5c0-3.4,2.7-6.1,6.1-6.1h72.5c3.4,0,6.1,2.7,6.1,6.1v72.5    C887.6,895,884.8,897.7,881.4,897.7z M815.1,885.5h60.2v-60.2h-60.2V885.5z"></path></g><g><path d="M809,861.5H191c-3.4,0-6.1-2.7-6.1-6.1v-30.1h-30.1c-3.4,0-6.1-2.7-6.1-6.1V180.9c0-3.4,2.7-6.1,6.1-6.1h30.1v-30.1    c0-3.4,2.7-6.1,6.1-6.1H809c3.4,0,6.1,2.7,6.1,6.1v30.1h30.1c3.4,0,6.1,2.7,6.1,6.1v638.2c0,3.4-2.7,6.1-6.1,6.1h-30.1v30.1    C815.1,858.7,812.3,861.5,809,861.5z M197.2,849.2h605.7v-30.1c0-3.4,2.7-6.1,6.1-6.1h30.1V187H809c-3.4,0-6.1-2.7-6.1-6.1v-30.1    H197.2v30.1c0,3.4-2.7,6.1-6.1,6.1h-30.1v626H191c3.4,0,6.1,2.7,6.1,6.1V849.2z"></path></g><g><g><path d="M701.5,474.6h-403c-3.4,0-6.1-2.7-6.1-6.1V265.2c0-3.4,2.7-6.1,6.1-6.1h403c3.4,0,6.1,2.7,6.1,6.1v203.3     C707.6,471.8,704.9,474.6,701.5,474.6z M304.6,462.3h390.8v-191H304.6V462.3z"></path></g><g><path d="M298.5,474.6c-2.2,0-4.4-1.2-5.5-3.4c-1.5-3-0.3-6.7,2.7-8.2l403-203.3c3-1.5,6.7-0.3,8.2,2.7c1.5,3,0.3,6.7-2.7,8.2     l-403,203.3C300.4,474.4,299.4,474.6,298.5,474.6z"></path></g><g><path d="M701.5,474.6c-0.9,0-1.9-0.2-2.7-0.7l-403-203.3c-3-1.5-4.2-5.2-2.7-8.2c1.5-3,5.2-4.2,8.2-2.7l403,203.3     c3,1.5,4.2,5.2,2.7,8.2C705.9,473.3,703.7,474.6,701.5,474.6z"></path></g><g><path d="M701.5,528.9h-403c-3.4,0-6.1-2.7-6.1-6.1s2.7-6.1,6.1-6.1h403c3.4,0,6.1,2.7,6.1,6.1S704.9,528.9,701.5,528.9z"></path></g><g><g><path d="M461.5,588.5h-163c-3.4,0-6.1-2.7-6.1-6.1s2.7-6.1,6.1-6.1h163c3.4,0,6.1,2.7,6.1,6.1S464.8,588.5,461.5,588.5z"></path></g><g><path d="M461.5,639.3h-163c-3.4,0-6.1-2.7-6.1-6.1s2.7-6.1,6.1-6.1h163c3.4,0,6.1,2.7,6.1,6.1S464.8,639.3,461.5,639.3z"></path></g><g><path d="M461.5,690.1h-163c-3.4,0-6.1-2.7-6.1-6.1s2.7-6.1,6.1-6.1h163c3.4,0,6.1,2.7,6.1,6.1S464.8,690.1,461.5,690.1z"></path></g><g><path d="M461.5,740.9h-163c-3.4,0-6.1-2.7-6.1-6.1s2.7-6.1,6.1-6.1h163c3.4,0,6.1,2.7,6.1,6.1S464.8,740.9,461.5,740.9z"></path></g></g><g><g><path d="M701.5,588.5h-163c-3.4,0-6.1-2.7-6.1-6.1s2.7-6.1,6.1-6.1h163c3.4,0,6.1,2.7,6.1,6.1S704.9,588.5,701.5,588.5z"></path></g><g><path d="M701.5,639.3h-163c-3.4,0-6.1-2.7-6.1-6.1s2.7-6.1,6.1-6.1h163c3.4,0,6.1,2.7,6.1,6.1S704.9,639.3,701.5,639.3z"></path></g><g><path d="M701.5,690.1h-163c-3.4,0-6.1-2.7-6.1-6.1s2.7-6.1,6.1-6.1h163c3.4,0,6.1,2.7,6.1,6.1S704.9,690.1,701.5,690.1z"></path></g><g><path d="M701.5,740.9h-163c-3.4,0-6.1-2.7-6.1-6.1s2.7-6.1,6.1-6.1h163c3.4,0,6.1,2.7,6.1,6.1S704.9,740.9,701.5,740.9z"></path></g></g></g><g><g><path d="M881.4,187H809c-3.4,0-6.1-2.7-6.1-6.1v-72.5c0-3.4,2.7-6.1,6.1-6.1h72.5c3.4,0,6.1,2.7,6.1,6.1v72.5     C887.6,184.3,884.8,187,881.4,187z M815.1,174.8h60.2v-60.2h-60.2V174.8z"></path></g></g><g><g><path d="M191,897.7h-72.5c-3.4,0-6.1-2.7-6.1-6.1v-72.5c0-3.4,2.7-6.1,6.1-6.1H191c3.4,0,6.1,2.7,6.1,6.1v72.5     C197.2,895,194.4,897.7,191,897.7z M124.7,885.5h60.2v-60.2h-60.2V885.5z"></path></g></g></g></svg>